<?xml version="1.0" encoding="iso-8859-1"?>
<!-- Generator: Adobe Illustrator 19.0.0, SVG Export Plug-In . SVG Version: 6.00 Build 0)  -->
<svg version="1.1" id="Layer_1" xmlns="http://www.w3.org/2000/svg" xmlns:xlink="http://www.w3.org/1999/xlink" x="0px" y="0px"
	 viewBox="0 0 512 512" style="enable-background:new 0 0 512 512;" xml:space="preserve">
<path style="fill:#E3E8F4;" d="M285.976,7.411c-16.487-9.114-43.465-9.114-59.952,0L54.779,102.077
	c-16.487,9.114-29.976,31.984-29.976,50.822v206.776c0,18.838,13.49,41.708,29.976,50.822l171.245,94.666
	c16.487,9.114,43.465,9.114,59.952,0l171.245-94.666c16.487-9.114,29.976-31.984,29.976-50.822V152.899
	c0-18.838-13.49-41.708-29.976-50.822L285.976,7.411z"/>
<path style="fill:#C7CFE2;" d="M255.999,511.996V276.62c0-18.697-10.158-35.918-26.52-44.963L55.701,135.59
	c-13.42-7.419-30.784,1.689-30.896,17.023c-0.001,0.095-0.001,0.192-0.001,0.287v206.777c0,18.838,13.489,41.707,29.975,50.821
	l171.245,94.666c8.246,4.559,19.115,6.836,29.986,6.835L255.999,511.996z"/>
<path style="fill:#D7DEED;" d="M255.999,511.996V276.62c0-18.697,10.158-35.918,26.52-44.963l173.778-96.066
	c13.42-7.419,30.784,1.689,30.896,17.023c0.001,0.095,0.001,0.192,0.001,0.287v206.777c0,18.838-13.489,41.707-29.975,50.821
	l-171.244,94.664c-8.246,4.559-19.115,6.836-29.986,6.835L255.999,511.996z"/>
<path style="fill:#EFF2FA;" d="M287.071,229.168l170.646-94.336c12.773-7.06,12.773-25.421,0-32.481L287.071,8.016
	c-19.335-10.689-42.807-10.689-62.141,0L54.282,102.352c-12.773,7.06-12.773,25.421,0,32.481l170.646,94.336
	C244.264,239.857,267.736,239.857,287.071,229.168z"/>
<path style="fill:#5B5D6E;" d="M165.912,335.478c0,19.857-12.073,28.984-26.965,20.386c-14.893-8.598-26.965-31.665-26.965-51.522
	c0-19.857,12.073-28.984,26.965-20.386C153.839,292.554,165.912,315.622,165.912,335.478z"/>
<path style="fill:#515262;" d="M138.947,283.955c-10.77-6.219-19.992-3.064-24.313,6.611c3.538-0.231,7.456,0.646,11.647,3.067
	c14.893,8.598,26.965,31.665,26.965,51.523c0,5.497-0.999,10.071-2.653,13.774c9.035-0.591,15.32-9.183,15.32-23.451
	C165.912,315.621,153.839,292.554,138.947,283.955z"/>
<path style="fill:#707487;" d="M290.251,432.098c0,19.857,12.073,28.984,26.965,20.386s26.965-31.665,26.965-51.522
	s-12.073-28.984-26.965-20.386C302.324,389.173,290.251,412.24,290.251,432.098z"/>
<path style="fill:#5B5D6E;" d="M317.216,380.575c-1.965,1.135-3.87,2.55-5.717,4.148c9.168,0.448,15.557,9.088,15.557,23.486
	c0,17.237-9.108,36.863-21.25,47.375c3.477,0.17,7.315-0.736,11.409-3.101c14.893-8.598,26.965-31.665,26.965-51.522
	C344.182,381.104,332.109,371.977,317.216,380.575z"/>
<path style="fill:#707487;" d="M401.567,242.401c0,19.857,12.073,28.984,26.965,20.386c14.893-8.598,26.965-31.665,26.965-51.523
	s-12.073-28.984-26.965-20.386S401.567,222.545,401.567,242.401z"/>
<path style="fill:#5B5D6E;" d="M428.533,190.879c-1.965,1.135-3.87,2.55-5.717,4.148c9.168,0.448,15.557,9.088,15.557,23.486
	c0,17.237-9.108,36.863-21.25,47.375c3.477,0.17,7.315-0.736,11.409-3.101c14.893-8.598,26.965-31.665,26.965-51.522
	C455.499,191.407,443.426,182.281,428.533,190.879z"/>
<path style="fill:#707487;" d="M347.636,336.592c0,19.857,12.073,28.984,26.965,20.386c14.893-8.598,26.965-31.665,26.965-51.523
	c0-19.857-12.073-28.984-26.965-20.386C359.709,293.668,347.636,316.736,347.636,336.592z"/>
<path style="fill:#5B5D6E;" d="M374.602,285.07c-1.965,1.135-3.87,2.55-5.717,4.148c9.168,0.448,15.557,9.088,15.557,23.486
	c0,17.237-9.108,36.863-21.25,47.375c3.477,0.17,7.315-0.736,11.409-3.101c14.893-8.598,26.965-31.665,26.965-51.523
	C401.567,285.598,389.495,276.472,374.602,285.07z"/>
<ellipse style="fill:#707487;" cx="255.996" cy="116.176" rx="42.814" ry="21.407"/>
<path style="fill:#65687A;" d="M255.999,94.766c-20.246,0-37.11,7.047-41.569,16.489c7.851-4.798,19.639-7.926,33.006-7.926
	c23.645,0,42.814,9.584,42.814,21.407c0,1.7-0.496,3.332-1.245,4.918c6.037-3.689,9.808-8.341,9.808-13.481
	C298.813,104.35,279.646,94.766,255.999,94.766z"/>
<ellipse style="fill:#707487;" cx="255.996" cy="56.236" rx="42.814" ry="21.407"/>
<path style="fill:#65687A;" d="M255.999,34.827c-20.246,0-37.11,7.047-41.569,16.489c7.851-4.798,19.639-7.926,33.006-7.926
	c23.645,0,42.814,9.584,42.814,21.407c0,1.7-0.496,3.332-1.245,4.918c6.037-3.69,9.808-8.341,9.808-13.481
	C298.813,44.411,279.646,34.827,255.999,34.827z"/>
<ellipse style="fill:#707487;" cx="255.996" cy="176.115" rx="42.814" ry="21.407"/>
<path style="fill:#65687A;" d="M255.999,154.706c-20.246,0-37.11,7.047-41.569,16.489c7.851-4.798,19.639-7.926,33.006-7.926
	c23.645,0,42.814,9.584,42.814,21.407c0,1.7-0.496,3.332-1.245,4.918c6.037-3.69,9.808-8.341,9.808-13.481
	C298.813,164.29,279.646,154.706,255.999,154.706z"/>
<ellipse style="fill:#707487;" cx="367.313" cy="116.176" rx="42.814" ry="21.407"/>
<path style="fill:#65687A;" d="M367.316,94.766c-20.246,0-37.11,7.047-41.569,16.489c7.851-4.798,19.639-7.926,33.006-7.926
	c23.645,0,42.814,9.584,42.814,21.407c0,1.7-0.496,3.332-1.245,4.918c6.037-3.689,9.808-8.341,9.808-13.481
	C410.13,104.35,390.962,94.766,367.316,94.766z"/>
<ellipse style="fill:#707487;" cx="144.679" cy="116.176" rx="42.814" ry="21.407"/>
<path style="fill:#65687A;" d="M144.683,94.766c-20.246,0-37.11,7.047-41.569,16.489c7.851-4.798,19.639-7.926,33.006-7.926
	c23.645,0,42.814,9.584,42.814,21.407c0,1.7-0.496,3.332-1.245,4.918c6.037-3.689,9.808-8.341,9.808-13.481
	C187.497,104.35,168.329,94.766,144.683,94.766z"/>
<g>
</g>
<g>
</g>
<g>
</g>
<g>
</g>
<g>
</g>
<g>
</g>
<g>
</g>
<g>
</g>
<g>
</g>
<g>
</g>
<g>
</g>
<g>
</g>
<g>
</g>
<g>
</g>
<g>
</g>
</svg>
